<svg width="50" height="50" viewBox="0 0 50 47" fill="none" xmlns="http://www.w3.org/2000/svg">
<path d="M38.2422 1.15079C41.5191 2.95448 43.3876 7.27761 45.486 11.3144C47.5843 15.3513 49.9414 19.1304 49.9989 22.9382C50.0564 26.746 47.8143 30.5824 45.5434 34.3329C43.2438 38.0548 40.9155 41.6908 37.5523 43.9812C34.2179 46.2716 29.9062 47.2164 25.7094 46.9588C21.5414 46.7011 17.4883 45.241 14.0389 43.0365C10.5895 40.8033 7.68628 37.8258 5.013 34.3329C2.31097 30.8687 -0.189844 26.8891 0.0113706 23.0241C0.241331 19.1877 3.17332 15.4658 5.99033 12.202C8.80734 8.93814 11.5094 6.13241 14.7576 4.30009C18.0057 2.46777 21.8001 1.60887 26.0256 0.835859C30.2511 0.0342194 34.9653 -0.68153 38.2422 1.15079Z" fill="#CDD6F4"/>
<path fill-rule="evenodd" clip-rule="evenodd" d="M21.9109 11.3451C25.0024 10.6457 28.2397 11.016 31.0933 12.3955C33.9469 13.7751 36.2479 16.0821 37.6199 18.9392C38.9922 21.7965 39.3543 25.0346 38.6469 28.1242C38.4005 29.201 37.3277 29.8741 36.2509 29.6274C35.1743 29.381 34.5013 28.3082 34.7477 27.2317C35.253 25.0248 34.9943 22.7117 34.0143 20.6709C33.0341 18.63 31.3906 16.9822 29.3522 15.9968C27.3141 15.0115 25.0016 14.7469 22.7933 15.2465C20.5853 15.746 18.6119 16.9801 17.1962 18.7469C15.7805 20.5136 15.0063 22.7085 15 24.9725C14.9938 27.2365 15.756 29.4354 17.162 31.2101C18.5679 32.9845 20.5344 34.2295 22.7397 34.7413C24.9453 35.253 27.2589 35.001 29.3026 34.0269C30.2997 33.5517 31.4933 33.9746 31.9687 34.9717C32.4439 35.969 32.0207 37.1623 31.0237 37.6378C28.1626 39.0015 24.9234 39.3541 21.8357 38.6378C18.7482 37.9213 15.9951 36.1783 14.0268 33.6941C12.0584 31.2098 10.9913 28.1312 11.0001 24.9616C11.0088 21.792 12.0928 18.7191 14.0747 16.2456C16.0567 13.7722 18.8194 12.0444 21.9109 11.3451Z" fill="black"/>
<path fill-rule="evenodd" clip-rule="evenodd" d="M25.5732 22.3265C25.0772 22.1784 24.5491 22.1599 24.0432 22.2731C23.5373 22.3865 23.0722 22.627 22.6958 22.9705C21.8197 23.7694 20.4347 23.7358 19.6023 22.8949C18.7695 22.0544 18.8047 20.7252 19.6807 19.9261C20.622 19.0677 21.785 18.4659 23.0495 18.1829C24.314 17.8999 25.6342 17.946 26.8742 18.3164C28.1139 18.6869 29.2282 19.3682 30.102 20.2901C30.9756 21.2119 31.5772 22.3411 31.8441 23.5605C32.1111 24.7799 32.0341 26.0458 31.6209 27.2271C31.2078 28.4087 30.4734 29.4626 29.494 30.2808C28.5142 31.0986 27.325 31.6508 26.0485 31.8804C24.7723 32.1097 23.4553 32.0081 22.2337 31.5856C21.0967 31.1924 20.507 29.9893 20.9167 28.8981C21.3263 27.807 22.58 27.2411 23.717 27.6342C24.2057 27.8031 24.7324 27.8439 25.243 27.7521C25.7535 27.6603 26.2291 27.4393 26.621 27.1123C27.0128 26.785 27.3066 26.3633 27.4718 25.8909C27.6372 25.4183 27.6678 24.9121 27.561 24.4243C27.4542 23.9363 27.2138 23.4849 26.8643 23.1161C26.5148 22.7474 26.0689 22.4747 25.5732 22.3265Z" fill="black"/>
<path fill-rule="evenodd" clip-rule="evenodd" d="M22.0799 7.39439C25.5026 6.59509 29.0868 7.01834 32.2461 8.5949C35.4055 10.1715 37.9531 12.8081 39.4721 16.0734C40.9914 19.3389 41.3923 23.0396 40.609 26.5705C40.3362 27.8012 39.1485 28.5704 37.9563 28.2885C36.7645 28.0069 36.0193 26.7808 36.2921 25.5505C36.8515 23.0283 36.5652 20.3848 35.4802 18.0525C34.3949 15.72 32.5753 13.8368 30.3185 12.7106C28.062 11.5845 25.5017 11.2822 23.0569 11.8531C20.6123 12.424 18.4275 13.8344 16.8601 15.8536C15.2928 17.8727 14.4355 20.3811 14.4286 22.9686C14.4217 25.556 15.2656 28.069 16.8222 30.0972C18.3787 32.1251 20.5559 33.548 22.9975 34.1329C25.4394 34.7177 28.0009 34.4297 30.2636 33.3164C31.3675 32.7733 32.689 33.2567 33.2154 34.3962C33.7415 35.536 33.273 36.8998 32.1691 37.4432C29.0015 39.0017 25.4152 39.4046 21.9967 38.586C18.5784 37.7672 15.5303 35.7752 13.3511 32.9361C11.1718 30.0969 9.9904 26.5785 10.0001 22.9561C10.0097 19.3337 11.2099 15.8218 13.4042 12.995C15.5985 10.1682 18.6572 8.19365 22.0799 7.39439Z" fill="#1E1E2E"/>
<path fill-rule="evenodd" clip-rule="evenodd" d="M25.5732 19.6356C25.0772 19.4769 24.5491 19.4571 24.0432 19.5783C23.5373 19.6998 23.0722 19.9575 22.6958 20.3256C21.8197 21.1815 20.4347 21.1455 19.6023 20.2446C18.7695 19.344 18.8047 17.9199 19.6807 17.0637C20.622 16.1439 21.785 15.4991 23.0495 15.196C24.314 14.8927 25.6342 14.9422 26.8742 15.3391C28.1139 15.736 29.2282 16.466 30.102 17.4537C30.9756 18.4413 31.5772 19.6512 31.8441 20.9577C32.1111 22.2642 32.0341 23.6205 31.6209 24.8862C31.2078 26.1522 30.4734 27.2814 29.494 28.158C28.5142 29.0343 27.325 29.6259 26.0485 29.8719C24.7723 30.1176 23.4553 30.0087 22.2337 29.556C21.0967 29.1348 20.507 27.8457 20.9167 26.6766C21.3263 25.5075 22.58 24.9012 23.717 25.3224C24.2057 25.5033 24.7324 25.5471 25.243 25.4487C25.7535 25.3503 26.2291 25.1136 26.621 24.7632C27.0128 24.4125 27.3066 23.9607 27.4718 23.4546C27.6372 22.9482 27.6678 22.4058 27.561 21.8832C27.4542 21.3603 27.2138 20.8767 26.8643 20.4816C26.5148 20.0865 26.0689 19.7943 25.5732 19.6356Z" fill="#1E1E2E"/>
</svg>
